<?xml version='1.0' encoding='utf-8'?>
<svg xmlns="http://www.w3.org/2000/svg" version="1.1" width="766" height="612" viewBox="0 0 766 612"><g fill="#000000" stroke="none" fill-rule="evenodd"><path d="M497 420 L496 421 L495 421 L494 422 L493 422 L491 424 L491 425 L490 426 L490 427 L489 428 L489 435 L490 436 L490 438 L495 443 L496 443 L499 446 L500 446 L503 449 L504 449 L507 452 L508 452 L511 455 L512 455 L515 458 L516 458 L519 461 L520 461 L522 463 L523 463 L526 466 L527 466 L530 469 L531 469 L534 472 L535 472 L538 475 L539 475 L542 478 L543 478 L546 481 L547 481 L550 484 L551 484 L554 487 L555 487 L558 490 L559 490 L562 493 L563 493 L566 496 L567 496 L570 499 L571 499 L574 502 L575 502 L578 505 L579 505 L582 508 L583 508 L586 511 L587 511 L590 514 L591 514 L594 517 L595 517 L598 520 L599 520 L602 523 L603 523 L606 526 L607 526 L609 528 L610 528 L611 529 L612 529 L613 530 L619 530 L620 529 L622 529 L627 524 L627 522 L628 521 L628 516 L627 515 L627 513 L626 512 L626 511 L623 508 L622 508 L619 505 L618 505 L615 502 L614 502 L611 499 L610 499 L607 496 L606 496 L603 493 L602 493 L599 490 L598 490 L595 487 L594 487 L591 484 L590 484 L587 481 L586 481 L583 478 L582 478 L579 475 L578 475 L575 472 L574 472 L571 469 L570 469 L567 466 L566 466 L563 463 L562 463 L559 460 L558 460 L555 457 L554 457 L551 454 L550 454 L547 451 L546 451 L543 448 L542 448 L539 445 L538 445 L535 442 L534 442 L531 439 L530 439 L527 436 L526 436 L523 433 L522 433 L519 430 L518 430 L515 427 L514 427 L511 424 L510 424 L508 422 L507 422 L506 421 L505 421 L504 420 Z" /><path d="M521 357 L520 358 L517 358 L516 359 L515 359 L511 363 L511 364 L510 365 L510 368 L509 369 L509 370 L510 371 L510 374 L512 376 L512 377 L514 379 L515 379 L516 380 L517 380 L518 381 L642 381 L643 380 L644 380 L649 375 L649 373 L650 372 L650 367 L649 366 L649 364 L647 362 L647 361 L646 360 L645 360 L643 358 L639 358 L638 357 Z" /><path d="M613 210 L612 211 L611 211 L610 212 L609 212 L607 214 L606 214 L603 217 L602 217 L599 220 L598 220 L595 223 L594 223 L591 226 L590 226 L588 228 L587 228 L584 231 L583 231 L580 234 L579 234 L576 237 L575 237 L573 239 L572 239 L569 242 L568 242 L565 245 L564 245 L561 248 L560 248 L557 251 L556 251 L554 253 L553 253 L550 256 L549 256 L546 259 L545 259 L542 262 L541 262 L539 264 L538 264 L535 267 L534 267 L531 270 L530 270 L527 273 L526 273 L523 276 L522 276 L520 278 L519 278 L516 281 L515 281 L512 284 L511 284 L508 287 L507 287 L505 289 L504 289 L501 292 L500 292 L497 295 L496 295 L490 301 L490 302 L489 303 L489 311 L490 312 L490 313 L495 318 L497 318 L498 319 L503 319 L504 318 L505 318 L506 317 L507 317 L508 316 L509 316 L512 313 L513 313 L516 310 L517 310 L519 308 L520 308 L523 305 L524 305 L527 302 L528 302 L531 299 L532 299 L534 297 L535 297 L538 294 L539 294 L542 291 L543 291 L546 288 L547 288 L549 286 L550 286 L553 283 L554 283 L557 280 L558 280 L561 277 L562 277 L564 275 L565 275 L568 272 L569 272 L572 269 L573 269 L576 266 L577 266 L580 263 L581 263 L583 261 L584 261 L587 258 L588 258 L591 255 L592 255 L595 252 L596 252 L598 250 L599 250 L602 247 L603 247 L606 244 L607 244 L610 241 L611 241 L613 239 L614 239 L617 236 L618 236 L621 233 L622 233 L627 228 L627 227 L628 226 L628 225 L629 224 L629 219 L628 218 L628 217 L627 216 L627 215 L623 211 L622 211 L621 210 Z" /><path d="M219 28 L218 29 L209 29 L208 30 L204 30 L203 31 L201 31 L197 35 L197 36 L196 37 L196 41 L195 42 L195 43 L196 44 L196 46 L197 47 L197 48 L201 52 L202 52 L203 53 L218 53 L219 52 L258 52 L259 53 L268 53 L269 54 L275 54 L276 55 L282 55 L283 56 L287 56 L288 57 L292 57 L293 58 L296 58 L297 59 L300 59 L301 60 L304 60 L305 61 L307 61 L308 62 L310 62 L311 63 L314 63 L315 64 L317 64 L318 65 L320 65 L321 66 L322 66 L323 67 L325 67 L326 68 L327 68 L328 69 L330 69 L331 70 L332 70 L333 71 L334 71 L335 72 L336 72 L337 73 L338 73 L339 74 L340 74 L341 75 L342 75 L343 76 L344 76 L345 77 L346 77 L347 78 L348 78 L350 80 L351 80 L353 82 L354 82 L356 84 L357 84 L359 86 L360 86 L362 88 L363 88 L367 92 L368 92 L372 96 L373 96 L387 110 L387 111 L393 117 L393 118 L395 120 L395 121 L398 124 L398 125 L400 127 L400 128 L402 130 L402 131 L403 132 L403 133 L404 134 L404 136 L405 137 L405 141 L406 142 L406 146 L405 147 L405 152 L404 153 L404 155 L403 156 L403 157 L402 158 L402 159 L401 160 L401 161 L400 162 L400 163 L399 164 L399 167 L398 168 L398 172 L397 173 L397 179 L398 180 L398 186 L399 187 L399 192 L400 193 L400 201 L401 202 L401 221 L400 222 L400 232 L401 233 L401 238 L402 239 L402 241 L403 242 L403 244 L404 245 L404 246 L405 247 L405 248 L407 250 L407 251 L408 252 L408 253 L410 255 L410 256 L412 258 L412 259 L414 261 L414 262 L416 264 L416 265 L417 266 L417 267 L419 269 L419 270 L421 272 L421 273 L423 275 L423 276 L425 278 L425 279 L426 280 L426 281 L428 283 L428 284 L430 286 L430 287 L432 289 L432 290 L434 292 L434 293 L435 294 L435 295 L437 297 L437 298 L439 300 L439 301 L441 303 L441 304 L442 305 L442 306 L443 307 L443 311 L442 312 L442 313 L440 315 L439 315 L438 316 L433 316 L432 317 L417 317 L415 319 L414 319 L412 321 L412 322 L411 323 L411 324 L410 325 L410 332 L411 333 L411 336 L412 337 L412 340 L413 341 L413 344 L414 345 L414 348 L415 349 L415 356 L412 359 L411 359 L407 363 L407 364 L406 365 L406 367 L405 368 L405 371 L406 372 L406 374 L407 375 L407 376 L409 378 L409 379 L410 380 L410 387 L409 388 L409 389 L404 394 L404 395 L403 396 L403 397 L401 399 L401 401 L400 402 L400 406 L399 407 L399 418 L398 419 L398 421 L397 422 L397 425 L395 427 L395 428 L394 429 L394 430 L392 432 L392 433 L389 436 L388 436 L384 440 L383 440 L381 442 L380 442 L379 443 L376 443 L375 444 L373 444 L372 445 L359 445 L358 444 L356 444 L355 443 L352 443 L351 442 L349 442 L348 441 L345 441 L344 440 L330 440 L329 441 L326 441 L325 442 L324 442 L323 443 L322 443 L321 444 L319 444 L316 447 L315 447 L307 455 L307 456 L306 457 L306 458 L305 459 L305 460 L304 461 L304 462 L303 463 L303 465 L302 466 L302 469 L301 470 L301 475 L300 476 L300 484 L299 485 L299 499 L300 500 L300 512 L298 514 L294 514 L293 513 L290 513 L289 512 L287 512 L286 511 L284 511 L283 510 L281 510 L280 509 L278 509 L277 508 L275 508 L274 507 L271 507 L270 506 L268 506 L267 505 L265 505 L264 504 L262 504 L261 503 L259 503 L258 502 L256 502 L255 501 L253 501 L252 500 L249 500 L248 499 L246 499 L245 498 L243 498 L242 497 L240 497 L239 496 L237 496 L236 495 L234 495 L233 494 L230 494 L229 493 L227 493 L226 492 L224 492 L223 491 L221 491 L220 490 L218 490 L217 489 L214 489 L213 488 L208 488 L207 489 L205 489 L200 494 L200 495 L199 496 L199 503 L200 504 L200 506 L204 510 L205 510 L206 511 L207 511 L208 512 L210 512 L211 513 L213 513 L214 514 L216 514 L217 515 L220 515 L221 516 L223 516 L224 517 L226 517 L227 518 L229 518 L230 519 L232 519 L233 520 L235 520 L236 521 L239 521 L240 522 L242 522 L243 523 L245 523 L246 524 L248 524 L249 525 L251 525 L252 526 L254 526 L255 527 L258 527 L259 528 L261 528 L262 529 L264 529 L265 530 L267 530 L268 531 L270 531 L271 532 L273 532 L274 533 L276 533 L277 534 L280 534 L281 535 L283 535 L284 536 L286 536 L287 537 L289 537 L290 538 L293 538 L294 539 L304 539 L305 538 L307 538 L308 537 L310 537 L311 536 L312 536 L320 528 L320 527 L321 526 L321 525 L322 524 L322 522 L323 521 L323 515 L324 514 L324 499 L323 498 L323 486 L324 485 L324 478 L325 477 L325 473 L326 472 L326 471 L327 470 L327 469 L331 465 L332 465 L333 464 L341 464 L342 465 L344 465 L345 466 L347 466 L348 467 L351 467 L352 468 L356 468 L357 469 L375 469 L376 468 L379 468 L380 467 L383 467 L384 466 L386 466 L387 465 L388 465 L389 464 L391 464 L392 463 L393 463 L395 461 L396 461 L398 459 L399 459 L400 458 L401 458 L412 447 L412 446 L414 444 L414 443 L416 441 L416 440 L417 439 L417 438 L418 437 L418 436 L419 435 L419 433 L420 432 L420 431 L421 430 L421 427 L422 426 L422 422 L423 421 L423 410 L424 409 L424 408 L429 403 L429 402 L430 401 L430 400 L431 399 L431 398 L432 397 L432 396 L433 395 L433 393 L434 392 L434 384 L435 383 L435 382 L434 381 L434 376 L433 375 L433 372 L435 370 L435 369 L437 367 L437 365 L438 364 L438 362 L439 361 L439 356 L440 355 L440 352 L439 351 L439 346 L438 345 L438 342 L440 340 L443 340 L444 339 L447 339 L448 338 L449 338 L450 337 L451 337 L453 335 L454 335 L457 332 L458 332 L461 329 L461 328 L463 326 L463 325 L464 324 L464 323 L465 322 L465 320 L466 319 L466 316 L467 315 L467 305 L466 304 L466 300 L465 299 L465 297 L464 296 L464 295 L463 294 L463 293 L461 291 L461 290 L460 289 L460 288 L458 286 L458 285 L456 283 L456 282 L454 280 L454 279 L452 277 L452 276 L450 274 L450 273 L449 272 L449 271 L447 269 L447 268 L445 266 L445 265 L443 263 L443 262 L441 260 L441 259 L440 258 L440 257 L438 255 L438 254 L436 252 L436 251 L434 249 L434 248 L432 246 L432 245 L431 244 L431 243 L429 241 L429 240 L427 238 L427 237 L426 236 L426 235 L425 234 L425 232 L424 231 L424 220 L425 219 L425 202 L424 201 L424 192 L423 191 L423 186 L422 185 L422 180 L421 179 L421 174 L422 173 L422 171 L423 170 L423 169 L424 168 L424 167 L425 166 L425 165 L426 164 L426 162 L427 161 L427 159 L428 158 L428 155 L429 154 L429 147 L430 146 L430 142 L429 141 L429 135 L428 134 L428 130 L427 129 L427 128 L426 127 L426 125 L425 124 L425 123 L424 122 L424 121 L423 120 L423 119 L422 118 L422 117 L420 115 L420 114 L418 112 L418 111 L416 109 L416 108 L413 105 L413 104 L410 101 L410 100 L404 94 L404 93 L389 78 L388 78 L384 74 L383 74 L380 71 L379 71 L375 67 L374 67 L372 65 L371 65 L369 63 L368 63 L367 62 L366 62 L364 60 L363 60 L361 58 L360 58 L359 57 L358 57 L357 56 L356 56 L355 55 L354 55 L353 54 L352 54 L350 52 L349 52 L348 51 L347 51 L346 50 L345 50 L344 49 L342 49 L341 48 L340 48 L339 47 L338 47 L337 46 L335 46 L334 45 L333 45 L332 44 L330 44 L329 43 L328 43 L327 42 L324 42 L323 41 L321 41 L320 40 L318 40 L317 39 L315 39 L314 38 L312 38 L311 37 L308 37 L307 36 L304 36 L303 35 L300 35 L299 34 L295 34 L294 33 L290 33 L289 32 L284 32 L283 31 L277 31 L276 30 L270 30 L269 29 L260 29 L259 28 Z" /></g></svg>